<svg xmlns="http://www.w3.org/2000/svg" width="1240" height="620" viewBox="0 0 1240 620">
  <g id="Grupo_149785" data-name="Grupo 149785" transform="translate(-180.334 -3298)">
    <g id="Grupo_149784" data-name="Grupo 149784">
      <g id="Grupo_149786" data-name="Grupo 149786">
        <g id="Grupo_149783" data-name="Grupo 149783">
          <g id="Grupo_136617" data-name="Grupo 136617" transform="translate(-524 -255)">
            <rect id="Rectángulo_33759" data-name="Rectángulo 33759" width="1240" height="620" rx="15" transform="translate(704.334 3553)" fill="#fdb74d" opacity="0.15"/>
            <g id="Grupo_80559" data-name="Grupo 80559" transform="translate(809.334 3635)">
              <text id="Comparación_de_concierto_Alejandro_Sanz" data-name="Comparación de concierto
Alejandro Sanz" fill="#12263f" font-size="18" font-family="Roboto-Black, Roboto" font-weight="800"><tspan x="0" y="19">Comparación de concierto</tspan><tspan x="0" y="44">Alejandro Sanz</tspan></text>
            </g>
          </g>
        </g>
        <text id="Un_cuadro_comparativo_es_una_herramienta_útil_para_la_toma_de_decisiones._En_un_solo_vistazo_se_pueden_observas_y_analizar_todas_las_características_y_cualidades_de_un_producto_servicio_lugar_concepto_o_idea_con_muchos_elementos_diferentes._Es_útil_en_e" data-name="Un cuadro comparativo es una herramienta útil para la toma de decisiones. En un solo vistazo se pueden observas y analizar todas las características y cualidades de un producto, servicio, lugar, concepto o idea con muchos elementos diferentes. Es útil en e" transform="translate(600.334 3380)" fill="#12263f" font-size="16" font-family="Roboto-Regular, Roboto"><tspan x="0" y="17">Un cuadro comparativo es una herramienta útil para la toma de decisiones. En un solo vistazo se </tspan><tspan x="0" y="41">pueden observas y analizar todas las características y cualidades de un producto, servicio, lugar, </tspan><tspan x="0" y="65">concepto o idea con muchos elementos diferentes. Es útil en el marketing y la investigación, entre </tspan><tspan x="0" y="89">otros rubros.</tspan></text>
      </g>
      <text id="Presentación_Bogotá" data-name="Presentación Bogotá" transform="translate(300.334 3568)" fill="#fff" font-size="16" font-family="Roboto-Black, Roboto" font-weight="800"><tspan x="0" y="17">Presentación Bogotá</tspan></text>
      <text id="PRECIO" transform="translate(771.334 3509)" fill="#12263f" font-size="16" font-family="Roboto-Black, Roboto" font-weight="800"><tspan x="0" y="17">PRECIO</tspan></text>
      <text id="Presentación_Medellín" data-name="Presentación Medellín" transform="translate(300.334 3642)" fill="#12263f" font-size="16" font-family="Roboto-Black, Roboto" font-weight="800"><tspan x="0" y="17">Presentación Medellín</tspan></text>
      <g id="Grupo_136639" data-name="Grupo 136639" transform="translate(1596.212 3498.172)">
        <g id="Grupo_136619" data-name="Grupo 136619" transform="translate(-979.174 278.53)">
          <path id="Trazado_200254" data-name="Trazado 200254" d="M-979.174,299.455a5.207,5.207,0,0,0,.241-1.409,22.847,22.847,0,0,1,17.673-18.987,22.825,22.825,0,0,1,27.014,16.791,22.816,22.816,0,0,1-14.3,26.882,21.813,21.813,0,0,1-5.969,1.306c-.071.005-.151-.012-.174.088h-.178c-.059-.064-.138-.041-.211-.046h-.171c-.11.017-.23-.04-.331.046h-1.6c-.1-.086-.221-.029-.331-.046h-.17c-.072.005-.151-.019-.211.046h-.356c-.625-.1-1.263-.087-1.889-.2a22.584,22.584,0,0,1-11.2-5.286A22.717,22.717,0,0,1-978.994,305c-.1-.6-.08-1.2-.18-1.8v-.445c.061-.057.042-.132.046-.2v-.163c-.011-.087.03-.183-.046-.259v-1.692c.085-.1.03-.216.046-.324-.006-.072.019-.151-.046-.21Z" transform="translate(979.174 -278.53)"/>
        </g>
        <circle id="Elipse_6184" data-name="Elipse 6184" cx="20.368" cy="20.368" r="20.368" transform="translate(-976.743 281)" fill="#fdb74d"/>
        <path id="Trazado_200255" data-name="Trazado 200255" d="M-920.28,410.735a14.187,14.187,0,0,1-13.5-9.9,14.371,14.371,0,0,1-.646-3.892c-.009-.272.029-.4.345-.381.577.028,1.158.027,1.735,0,.32-.015.4.1.4.4a10.713,10.713,0,0,0,1.253,4.9,11.318,11.318,0,0,0,8.709,6.258,11.527,11.527,0,0,0,11.945-5.884,10.729,10.729,0,0,0,1.439-5.167c.008-.387.1-.546.523-.514a16.03,16.03,0,0,0,1.646.006c.238-.006.334.041.325.311a14.02,14.02,0,0,1-3.5,9.009,13.964,13.964,0,0,1-7.715,4.541A13.368,13.368,0,0,1-920.28,410.735Z" transform="translate(-36.107 -95.247)"/>
        <path id="Trazado_200256" data-name="Trazado 200256" d="M-908.268,359.976a2.449,2.449,0,0,1-2.442,2.466,2.474,2.474,0,0,1-2.469-2.45,2.488,2.488,0,0,1,2.453-2.474A2.466,2.466,0,0,1-908.268,359.976Z" transform="translate(-53.258 -63.743)"/>
        <path id="Trazado_200257" data-name="Trazado 200257" d="M-829.263,360.038a2.466,2.466,0,0,1-2.506,2.407,2.476,2.476,0,0,1-2.413-2.506,2.49,2.49,0,0,1,2.512-2.413A2.481,2.481,0,0,1-829.263,360.038Z" transform="translate(-117.005 -63.747)"/>
      </g>
    </g>
  </g>
</svg>
